<?xml version="1.0" standalone="no"?>
<!DOCTYPE svg PUBLIC "-//W3C//DTD SVG 20010904//EN"
 "http://www.w3.org/TR/2001/REC-SVG-20010904/DTD/svg10.dtd">
<svg version="1.0" xmlns="http://www.w3.org/2000/svg"
 width="300.000000pt" height="442.000000pt" viewBox="0 0 300.000000 442.000000"
 preserveAspectRatio="xMidYMid meet">
<metadata>
Created by potrace 1.10, written by Peter Selinger 2001-2011
</metadata>
<g transform="translate(0.000000,442.000000) scale(0.100000,-0.100000)"
fill="#000000" stroke="none">
<path d="M1600 4237 c-154 -53 -486 -93 -575 -68 -49 13 -62 3 -46 -37 16 -39
95 -117 133 -133 27 -11 51 -7 205 30 187 46 323 63 323 42 0 -7 -22 -38 -50
-70 l-50 -57 -67 17 c-77 20 -163 24 -163 9 0 -17 28 -69 72 -133 22 -33 38
-60 36 -61 -20 -13 -537 -96 -601 -96 -23 0 -40 -5 -43 -14 -7 -19 17 -64 56
-103 43 -44 66 -43 286 11 98 25 180 43 182 41 1 -1 -34 -37 -80 -80 -88 -82
-316 -250 -408 -300 -70 -37 -49 -43 61 -15 237 59 421 146 566 267 28 24 54
43 57 43 11 0 6 -99 -6 -125 -14 -32 -51 -42 -94 -26 -32 12 -54 9 -54 -7 0
-4 23 -32 50 -61 28 -30 65 -72 83 -94 l31 -40 -29 8 c-17 5 -55 9 -85 10 -49
0 -55 -2 -58 -22 -2 -12 5 -42 16 -66 l19 -44 -216 -27 c-119 -15 -287 -35
-373 -44 -87 -9 -158 -20 -158 -25 0 -40 131 -187 167 -187 10 0 72 16 138 35
115 34 393 90 402 82 4 -5 -103 -101 -192 -174 -79 -64 -320 -220 -434 -281
-58 -31 -99 -58 -92 -60 22 -7 202 39 331 85 135 49 251 106 364 181 39 26 74
48 78 50 13 6 -3 -72 -24 -120 -16 -35 -19 -57 -14 -91 8 -50 65 -175 89 -196
29 -23 66 -16 104 20 66 64 68 74 66 279 l-1 185 34 -40 c19 -22 78 -93 130
-158 113 -139 153 -169 232 -175 95 -7 435 48 461 74 12 11 -18 39 -60 55 -24
10 -97 34 -163 54 -129 41 -274 109 -377 177 -153 100 -224 150 -227 157 -1 4
102 11 229 14 185 5 250 3 321 -9 50 -9 105 -13 124 -10 39 8 74 47 74 84 0
32 -69 100 -136 133 -70 34 -203 32 -431 -6 -164 -27 -172 -28 -198 -11 l-26
17 45 40 c61 54 88 125 90 239 1 75 -2 92 -28 143 -18 38 -42 69 -69 88 -22
16 -37 29 -33 29 4 0 68 9 142 20 143 22 174 19 174 -21 0 -24 -24 -72 -57
-116 -13 -17 -20 -34 -15 -37 5 -3 54 13 109 34 86 34 208 70 315 94 15 4 32
16 39 27 18 34 -78 117 -210 182 -132 65 -164 66 -336 12 -66 -21 -125 -40
-132 -42 -8 -3 -11 7 -10 33 3 38 4 39 82 71 73 30 170 61 283 92 59 16 56 42
-11 106 -68 64 -211 146 -252 144 -16 -1 -68 -15 -115 -32z m220 -53 c114 -69
173 -134 122 -134 -49 0 -304 -99 -339 -132 -30 -28 -31 -80 -2 -109 24 -24
37 -22 177 22 143 45 184 42 306 -20 93 -47 166 -100 166 -120 0 -5 -33 -17
-72 -26 -40 -10 -111 -31 -158 -46 -46 -16 -85 -27 -87 -25 -1 1 2 17 7 35 15
53 -20 109 -71 113 -30 2 -125 -9 -199 -23 -49 -10 -100 -40 -100 -60 0 -4 20
-31 45 -60 59 -70 78 -128 70 -216 -9 -84 -30 -134 -83 -196 -23 -27 -42 -52
-42 -56 0 -13 42 -52 67 -62 17 -6 65 -3 156 12 73 11 159 24 192 29 163 25
266 2 333 -74 26 -30 30 -40 22 -56 -15 -28 -50 -34 -126 -20 -75 12 -502 14
-548 2 -16 -4 -35 -17 -42 -28 -12 -17 -11 -23 2 -42 15 -21 36 -37 219 -160
107 -72 258 -144 380 -182 55 -17 114 -37 130 -44 l30 -14 -42 -11 c-71 -19
-234 -39 -310 -38 -55 2 -78 7 -100 23 -15 11 -83 86 -150 165 -128 151 -164
179 -189 144 -8 -10 -14 -37 -14 -59 -2 -251 -5 -302 -26 -336 -21 -36 -66
-66 -84 -55 -16 10 -68 118 -75 157 -5 26 -1 53 14 93 27 71 27 103 0 131 -26
27 -37 24 -135 -39 -103 -67 -256 -141 -346 -167 -45 -14 -23 11 50 58 153 97
342 253 368 304 14 27 14 31 -2 49 -10 11 -30 19 -49 19 -51 0 -228 -37 -364
-76 l-124 -36 -39 28 c-22 16 -47 42 -57 57 -14 24 -14 29 -1 37 8 5 29 10 47
10 58 0 596 71 614 81 29 15 40 44 29 74 -19 50 -15 55 47 54 92 -3 101 35 30
124 -21 27 -27 42 -19 45 31 10 73 57 83 93 15 48 -1 113 -31 129 -22 12 -34
6 -139 -73 -87 -66 -361 -197 -361 -173 0 3 37 33 81 67 112 85 218 187 225
215 8 33 -12 54 -51 54 -18 0 -98 -16 -178 -35 -80 -19 -157 -35 -172 -35 -31
0 -83 46 -68 61 6 6 100 23 209 39 110 16 218 34 242 40 23 5 62 15 87 21 79
20 86 50 30 138 -24 40 -32 71 -17 71 4 0 34 -7 67 -15 33 -8 68 -14 77 -15
35 0 138 112 138 152 0 10 -10 28 -21 39 -34 34 -107 25 -436 -57 -70 -17 -90
-14 -133 23 -48 40 -40 53 33 53 137 0 396 42 512 84 39 13 81 25 95 25 14 1
59 -20 100 -45z"/>
<path d="M1791 2092 c-6 -12 -6 -33 1 -60 9 -37 7 -52 -17 -120 -15 -42 -38
-96 -52 -120 -14 -24 -22 -46 -19 -49 9 -10 132 46 219 100 45 28 110 65 145
84 34 19 62 38 62 43 0 13 -78 77 -114 94 -45 21 -143 46 -183 46 -21 0 -36
-6 -42 -18z m169 -49 c47 -16 100 -49 100 -62 0 -17 -255 -169 -265 -159 -4 3
5 43 19 88 16 48 24 91 20 106 -11 42 1 56 43 48 21 -4 58 -13 83 -21z"/>
<path d="M1290 2013 c0 -19 121 -250 140 -268 30 -27 85 -12 133 36 37 37 39
42 34 86 -6 58 -39 91 -123 123 -64 24 -184 39 -184 23z m183 -65 c53 -23 87
-59 87 -93 0 -32 -47 -75 -81 -75 -24 0 -34 10 -69 70 -22 38 -43 83 -47 101
-6 31 -6 31 28 24 19 -4 56 -16 82 -27z"/>
<path d="M650 1913 c0 -9 21 -50 47 -92 55 -90 72 -112 124 -168 32 -35 47
-43 75 -43 123 0 206 140 130 219 -46 48 -218 100 -328 101 -38 0 -48 -3 -48
-17z m157 -37 c152 -33 203 -64 203 -126 0 -73 -92 -124 -148 -83 -34 25 -154
201 -147 214 8 12 11 12 92 -5z"/>
<path d="M1860 1764 c-52 -13 -140 -33 -195 -44 -92 -18 -485 -80 -527 -83
-11 -1 -18 -9 -18 -22 1 -43 116 -161 149 -150 16 4 209 45 217 45 6 0 3 -81
-5 -114 -9 -43 -50 -51 -119 -26 -62 24 -115 26 -132 5 -9 -11 -8 -24 4 -63
27 -80 36 -159 37 -302 0 -94 -5 -155 -17 -200 l-17 -65 35 -75 c37 -81 49
-95 88 -105 19 -4 37 1 64 20 42 28 73 33 341 54 l119 9 41 -44 c23 -24 48
-44 56 -44 38 1 93 47 123 104 l31 60 -3 211 c-3 172 -1 222 12 265 21 70 20
113 -1 132 -54 48 -220 107 -301 108 -47 0 -183 -41 -175 -53 3 -6 29 -7 67
-2 117 14 151 13 228 -9 92 -27 158 -67 158 -97 0 -12 -7 -49 -16 -83 -13 -50
-15 -95 -11 -248 3 -104 1 -203 -4 -222 -13 -49 -51 -99 -81 -110 -23 -8 -32
-5 -69 29 l-42 38 -151 -7 c-83 -4 -160 -8 -171 -10 -99 -14 -124 -21 -153
-37 -59 -34 -77 -24 -118 66 l-25 55 17 70 c21 89 15 361 -10 454 -10 37 -13
63 -7 69 5 5 30 3 64 -7 107 -31 155 -12 176 68 16 64 14 81 -13 112 l-23 28
-116 -19 -117 -19 -26 25 c-37 34 -49 60 -34 69 7 4 40 11 74 15 86 9 340 53
411 70 287 69 337 75 421 50 52 -15 124 -72 124 -97 0 -40 -28 -46 -245 -53
-241 -8 -264 -15 -265 -74 0 -13 -14 -39 -31 -58 -16 -19 -28 -38 -25 -41 6
-6 116 65 116 75 0 4 -10 17 -22 30 l-21 23 104 1 c57 1 113 3 124 4 11 1 73
2 138 3 111 2 119 3 142 27 40 40 34 79 -22 135 -83 83 -184 98 -353 54z"/>
<path d="M797 1397 c-44 -68 -142 -127 -209 -127 -41 0 -52 -11 -44 -43 8 -33
63 -69 113 -75 35 -4 51 0 73 17 29 21 50 27 50 15 0 -4 -10 -39 -21 -78 -31
-102 -30 -179 3 -236 29 -49 78 -197 78 -234 0 -27 -17 -30 -228 -42 l-113 -7
7 -31 c3 -17 13 -44 21 -59 22 -43 98 -117 119 -117 10 0 62 14 114 30 60 19
115 30 153 30 94 0 316 -68 637 -193 63 -25 164 -60 223 -78 104 -31 111 -32
170 -20 71 15 273 89 362 134 33 16 91 49 128 73 60 39 67 46 57 64 -10 19
-21 20 -218 20 -433 1 -583 18 -978 105 -110 25 -210 45 -221 45 -49 0 -53 8
-31 58 42 93 19 159 -89 256 -51 46 -55 52 -50 85 2 20 19 66 36 104 27 56 40
71 79 94 103 58 113 85 55 143 -43 42 -132 79 -209 87 -46 5 -52 3 -67 -20z
m180 -52 c100 -44 106 -71 28 -120 -34 -22 -64 -52 -80 -79 -38 -65 -67 -155
-60 -184 3 -14 32 -52 64 -86 32 -34 65 -72 74 -86 21 -31 22 -86 2 -135 -16
-38 -13 -66 8 -83 7 -6 60 -20 117 -32 119 -24 257 -55 313 -70 20 -6 72 -15
115 -20 42 -5 127 -16 187 -24 102 -13 327 -24 558 -27 67 -1 97 -5 94 -13
-11 -32 -335 -172 -456 -197 -55 -12 -63 -11 -177 25 -65 21 -175 59 -244 86
-282 110 -520 180 -608 180 -45 0 -157 -26 -216 -49 -16 -6 -37 -9 -47 -6 -26
9 -89 82 -89 104 0 17 10 20 83 26 45 4 100 8 122 10 22 2 46 4 53 4 7 1 24
13 38 28 21 23 24 33 19 68 -8 48 -43 148 -81 230 l-28 60 18 80 c30 132 30
148 6 170 -19 17 -24 18 -53 6 -49 -20 -83 -24 -106 -12 -31 17 -26 26 27 46
58 22 118 63 155 105 25 29 31 32 67 26 22 -3 66 -18 97 -31z"/>
<path d="M1620 1305 c-36 -7 -82 -16 -104 -20 -74 -12 -108 -77 -66 -123 24
-26 42 -27 132 -8 90 19 168 1 168 -39 0 -14 -80 -30 -200 -40 -63 -6 -79 -11
-97 -31 -26 -28 -28 -42 -11 -79 15 -34 47 -40 132 -27 77 12 138 4 164 -21
30 -31 18 -34 -198 -53 -91 -8 -127 -71 -76 -130 l23 -28 114 13 c177 20 247
35 269 59 18 20 20 36 20 214 0 211 -8 246 -64 297 -33 31 -110 37 -206 16z
m182 -39 c40 -30 48 -76 48 -279 l0 -194 -117 -16 c-65 -10 -148 -21 -185 -25
l-68 -9 0 37 0 37 113 12 c218 23 207 20 207 52 0 43 -42 85 -99 99 -46 11
-81 8 -203 -16 -26 -5 -28 -3 -28 28 l0 33 163 20 162 20 -1 39 c-2 48 -33 80
-97 97 -41 11 -75 6 -204 -27 -21 -6 -23 -3 -23 28 l0 35 113 21 c133 24 196
26 219 8z"/>
</g>
</svg>
